<svg xmlns="http://www.w3.org/2000/svg" xmlns:xlink="http://www.w3.org/1999/xlink" contentStyleType="text/css" data-diagram-type="DESCRIPTION" height="503px" preserveAspectRatio="none" style="width:498px;height:503px;background:#FFFFFF;" version="1.1" viewBox="0 0 498 503" width="498px" zoomAndPan="magnify"><defs/><g><!--cluster Fitness Class Management System--><g class="cluster" data-entity="Fitness Class Management System" data-source-line="6" data-uid="ent0004" id="cluster_Fitness Class Management System"><rect fill="none" height="490" rx="2.5" ry="2.5" style="stroke:#181818;stroke-width:1;" width="290" x="100" y="7"/><text fill="#000000" font-family="sans-serif" font-size="14" font-weight="bold" lengthAdjust="spacing" textLength="274.3604" x="107.8198" y="21.9951">Fitness Class Management System</text></g><!--entity UC1--><g class="entity" data-entity="UC1" data-source-line="7" data-uid="ent0005" id="entity_UC1"><ellipse cx="244.9559" cy="189.1912" fill="#F1F1F1" rx="68.9559" ry="16.1912" style="stroke:#181818;stroke-width:0.5;"/><text fill="#000000" font-family="sans-serif" font-size="14" lengthAdjust="spacing" textLength="103.7354" x="193.0882" y="193.8396">View Class List</text></g><!--entity UC2--><g class="entity" data-entity="UC2" data-source-line="8" data-uid="ent0006" id="entity_UC2"><ellipse cx="244.8285" cy="123.0236" fill="#F1F1F1" rx="56.8285" ry="14.5236" style="stroke:#181818;stroke-width:0.5;"/><text fill="#000000" font-family="sans-serif" font-size="14" lengthAdjust="spacing" textLength="76.125" x="206.766" y="127.6721">Book Class</text></g><!--entity UC3--><g class="entity" data-entity="UC3" data-source-line="9" data-uid="ent0007" id="entity_UC3"><ellipse cx="245.0058" cy="391.0012" fill="#F1F1F1" rx="63.0058" ry="15.0012" style="stroke:#181818;stroke-width:0.5;"/><text fill="#000000" font-family="sans-serif" font-size="14" lengthAdjust="spacing" textLength="88.1084" x="200.9516" y="395.6496">Create Class</text></g><!--entity UC4--><g class="entity" data-entity="UC4" data-source-line="10" data-uid="ent0008" id="entity_UC4"><ellipse cx="244.936" cy="322.7872" fill="#F1F1F1" rx="76.936" ry="17.7872" style="stroke:#181818;stroke-width:0.5;"/><text fill="#000000" font-family="sans-serif" font-size="14" lengthAdjust="spacing" textLength="123.3955" x="183.2383" y="327.4356">View Booking List</text></g><!--entity UC5--><g class="entity" data-entity="UC5" data-source-line="11" data-uid="ent0009" id="entity_UC5"><ellipse cx="244.939" cy="57.9878" fill="#F1F1F1" rx="65.439" ry="15.4878" style="stroke:#181818;stroke-width:0.5;"/><text fill="#000000" font-family="sans-serif" font-size="14" lengthAdjust="spacing" textLength="94.6299" x="197.6241" y="62.6362">Register User</text></g><!--entity UC6--><g class="entity" data-entity="UC6" data-source-line="12" data-uid="ent0010" id="entity_UC6"><ellipse cx="245.0911" cy="255.0236" fill="#F1F1F1" rx="55.5911" ry="14.5236" style="stroke:#181818;stroke-width:0.5;"/><text fill="#000000" font-family="sans-serif" font-size="14" lengthAdjust="spacing" textLength="74.375" x="207.9036" y="259.6721">Login User</text></g><!--entity UC8--><g class="entity" data-entity="UC8" data-source-line="13" data-uid="ent0011" id="entity_UC8"><ellipse cx="244.791" cy="461.1582" fill="#F1F1F1" rx="88.791" ry="20.1582" style="stroke:#181818;stroke-width:0.5;"/><text fill="#000000" font-family="sans-serif" font-size="14" lengthAdjust="spacing" textLength="150.999" x="169.2915" y="465.8066">Send Email Reminder</text></g><!--entity Guest--><g class="entity" data-entity="Guest" data-source-line="3" data-uid="ent0002" id="entity_Guest"><ellipse cx="31.0591" cy="94.5" fill="#F1F1F1" rx="8" ry="8" style="stroke:#181818;stroke-width:0.5;"/><path d="M31.0591,102.5 L31.0591,129.5 M18.0591,110.5 L44.0591,110.5 M31.0591,129.5 L18.0591,144.5 M31.0591,129.5 L44.0591,144.5" fill="none" style="stroke:#181818;stroke-width:0.5;"/><text fill="#000000" font-family="sans-serif" font-size="14" lengthAdjust="spacing" textLength="41.1182" x="10.5" y="158.9951">Guest</text></g><!--entity Trainer--><g class="entity" data-entity="Trainer" data-source-line="4" data-uid="ent0003" id="entity_Trainer"><ellipse cx="31.0093" cy="293.5" fill="#F1F1F1" rx="8" ry="8" style="stroke:#181818;stroke-width:0.5;"/><path d="M31.0093,301.5 L31.0093,328.5 M18.0093,309.5 L44.0093,309.5 M31.0093,328.5 L18.0093,343.5 M31.0093,328.5 L44.0093,343.5" fill="none" style="stroke:#181818;stroke-width:0.5;"/><text fill="#000000" font-family="sans-serif" font-size="14" lengthAdjust="spacing" textLength="50.0186" x="6" y="357.9951">Trainer</text></g><!--entity Member--><g class="entity" data-entity="Member" data-source-line="16" data-uid="ent0012" id="entity_Member"><ellipse cx="462.793" cy="159.5" fill="#F1F1F1" rx="8" ry="8" style="stroke:#181818;stroke-width:0.5;"/><path d="M462.793,167.5 L462.793,194.5 M449.793,175.5 L475.793,175.5 M462.793,194.5 L449.793,209.5 M462.793,194.5 L475.793,209.5" fill="none" style="stroke:#181818;stroke-width:0.5;"/><text fill="#000000" font-family="sans-serif" font-size="14" lengthAdjust="spacing" textLength="57.5859" x="434" y="223.9951">Member</text></g><!--entity Admin--><g class="entity" data-entity="Admin" data-source-line="17" data-uid="ent0013" id="entity_Admin"><ellipse cx="462.9321" cy="281.5" fill="#F1F1F1" rx="8" ry="8" style="stroke:#181818;stroke-width:0.5;"/><path d="M462.9321,289.5 L462.9321,316.5 M449.9321,297.5 L475.9321,297.5 M462.9321,316.5 L449.9321,331.5 M462.9321,316.5 L475.9321,331.5" fill="none" style="stroke:#181818;stroke-width:0.5;"/><text fill="#000000" font-family="sans-serif" font-size="14" lengthAdjust="spacing" textLength="44.8643" x="440.5" y="345.9951">Admin</text></g><!--link Guest to UC1--><g class="link" data-entity-1="Guest" data-entity-2="UC1" data-source-line="20" data-uid="lnk14" id="link_Guest_UC1"><path d="M51.69,135.81 C63.13,142.25 78,149.92 92,155 C122.88,166.22 152.7962,173.3259 181.8962,178.8759" fill="none" id="Guest-to-UC1" style="stroke:#181818;stroke-width:1;"/><polygon fill="#181818" points="187.79,180,179.6987,174.3847,182.8785,179.0633,178.2,182.2431,187.79,180" style="stroke:#181818;stroke-width:1;"/></g><!--link Guest to UC5--><g class="link" data-entity-1="Guest" data-entity-2="UC5" data-source-line="21" data-uid="lnk15" id="link_Guest_UC5"><path d="M51.58,111.34 C62.98,104.46 77.86,96.29 92,91 C123.1,79.35 153.5039,72.3372 182.8339,67.0872" fill="none" id="Guest-to-UC5" style="stroke:#181818;stroke-width:1;"/><polygon fill="#181818" points="188.74,66.03,179.176,63.6784,183.8182,66.911,180.5856,71.5532,188.74,66.03" style="stroke:#181818;stroke-width:1;"/></g><!--link Trainer to UC1--><g class="link" data-entity-1="Trainer" data-entity-2="UC1" data-source-line="23" data-uid="lnk16" id="link_Trainer_UC1"><path d="M46.01,284.87 C55.75,263.56 70.82,238.29 92,223 C116.56,205.27 142.7845,197.4275 171.1945,193.2275" fill="none" id="Trainer-to-UC1" style="stroke:#181818;stroke-width:1;"/><polygon fill="#181818" points="177.13,192.35,167.6418,189.7092,172.1838,193.0812,168.8117,197.6232,177.13,192.35" style="stroke:#181818;stroke-width:1;"/></g><!--link Trainer to UC3--><g class="link" data-entity-1="Trainer" data-entity-2="UC3" data-source-line="24" data-uid="lnk17" id="link_Trainer_UC3"><path d="M56.22,339.48 C66.82,346.05 79.64,353.19 92,358 C123.46,370.24 154.5285,377.3635 184.1285,382.5035" fill="none" id="Trainer-to-UC3" style="stroke:#181818;stroke-width:1;"/><polygon fill="#181818" points="190.04,383.53,181.8571,378.0492,185.1137,382.6746,180.4883,385.9312,190.04,383.53" style="stroke:#181818;stroke-width:1;"/></g><!--link Trainer to UC4--><g class="link" data-entity-1="Trainer" data-entity-2="UC4" data-source-line="25" data-uid="lnk18" id="link_Trainer_UC4"><path d="M56.32,323 C83.4,323 122.53,323 161.75,323" fill="none" id="Trainer-to-UC4" style="stroke:#181818;stroke-width:1;"/><polygon fill="#181818" points="167.75,323,158.75,319,162.75,323,158.75,327,167.75,323" style="stroke:#181818;stroke-width:1;"/></g><!--link Trainer to UC6--><g class="link" data-entity-1="Trainer" data-entity-2="UC6" data-source-line="26" data-uid="lnk19" id="link_Trainer_UC6"><path d="M56.15,305.99 C66.73,299.21 79.56,291.88 92,287 C125.01,274.05 158.2941,266.9001 188.6141,262.0901" fill="none" id="Trainer-to-UC6" style="stroke:#181818;stroke-width:1;"/><polygon fill="#181818" points="194.54,261.15,185.0244,258.6095,189.6018,261.9334,186.2779,266.5107,194.54,261.15" style="stroke:#181818;stroke-width:1;"/></g><!--link Trainer to UC8--><g class="link" data-entity-1="Trainer" data-entity-2="UC8" data-source-line="27" data-uid="lnk20" id="link_Trainer_UC8"><path d="M46.38,361.43 C56.18,382.57 71.18,407.57 92,423 C112.54,438.22 132.6343,446.0819 157.2543,451.5819" fill="none" id="Trainer-to-UC8" style="stroke:#181818;stroke-width:1;"/><polygon fill="#181818" points="163.11,452.89,155.1986,447.024,158.2303,451.7999,153.4544,454.8316,163.11,452.89" style="stroke:#181818;stroke-width:1;"/></g><!--reverse link UC1 to Member--><g class="link" data-entity-1="UC1" data-entity-2="Member" data-source-line="30" data-uid="lnk21" id="link_UC1_Member"><path d="M320.05,189 C360.48,189 403.62,189 433.85,189" fill="none" id="UC1-backto-Member" style="stroke:#181818;stroke-width:1;"/><polygon fill="#181818" points="314.05,189,323.05,193,319.05,189,323.05,185,314.05,189" style="stroke:#181818;stroke-width:1;"/></g><!--reverse link UC2 to Member--><g class="link" data-entity-1="UC2" data-entity-2="Member" data-source-line="31" data-uid="lnk22" id="link_UC2_Member"><path d="M301.4882,130.8077 C331.6882,135.8477 364.79,142.96 398,155 C410.18,159.42 422.92,165.79 433.8,171.82" fill="none" id="UC2-backto-Member" style="stroke:#181818;stroke-width:1;"/><polygon fill="#181818" points="295.57,129.82,303.7888,135.2469,300.5018,130.6431,305.1057,127.3561,295.57,129.82" style="stroke:#181818;stroke-width:1;"/></g><!--reverse link UC6 to Member--><g class="link" data-entity-1="UC6" data-entity-2="Member" data-source-line="32" data-uid="lnk23" id="link_UC6_Member"><path d="M299.7108,246.9095 C330.1108,241.6095 364.07,234.19 398,222 C410.12,217.65 422.84,211.45 433.73,205.61" fill="none" id="UC6-backto-Member" style="stroke:#181818;stroke-width:1;"/><polygon fill="#181818" points="293.8,247.94,303.3533,250.3348,298.7257,247.0812,301.9793,242.4537,293.8,247.94" style="stroke:#181818;stroke-width:1;"/></g><!--reverse link UC1 to Admin--><g class="link" data-entity-1="UC1" data-entity-2="Admin" data-source-line="34" data-uid="lnk24" id="link_UC1_Admin"><path d="M317.6997,194.2455 C346.0697,198.6255 372.57,206.3 398,223 C416.79,235.34 431.94,255.22 442.78,272.97" fill="none" id="UC1-backto-Admin" style="stroke:#181818;stroke-width:1;"/><polygon fill="#181818" points="311.77,193.33,320.0543,198.6564,316.7115,194.0929,321.2749,190.7501,311.77,193.33" style="stroke:#181818;stroke-width:1;"/></g><!--reverse link UC3 to Admin--><g class="link" data-entity-1="UC3" data-entity-2="Admin" data-source-line="35" data-uid="lnk25" id="link_UC3_Admin"><path d="M308.2122,383.5668 C337.6622,378.7768 367.84,371.6 398,358 C413.33,351.09 428.59,340.09 440.35,330.47" fill="none" id="UC3-backto-Admin" style="stroke:#181818;stroke-width:1;"/><polygon fill="#181818" points="302.29,384.53,311.8154,387.0333,307.2251,383.7273,310.5311,379.137,302.29,384.53" style="stroke:#181818;stroke-width:1;"/></g><!--reverse link UC4 to Admin--><g class="link" data-entity-1="UC4" data-entity-2="Admin" data-source-line="36" data-uid="lnk26" id="link_UC4_Admin"><path d="M326.0207,318.5569 C368.2807,316.2069 412.27,313.76 440.23,312.21" fill="none" id="UC4-backto-Admin" style="stroke:#181818;stroke-width:1;"/><polygon fill="#181818" points="320.03,318.89,329.2382,322.3841,325.0223,318.6124,328.794,314.3965,320.03,318.89" style="stroke:#181818;stroke-width:1;"/></g><!--reverse link UC6 to Admin--><g class="link" data-entity-1="UC6" data-entity-2="Admin" data-source-line="37" data-uid="lnk27" id="link_UC6_Admin"><path d="M297.9102,263.8995 C328.2902,269.5095 362.91,276.79 398,287 C412.36,291.18 428.08,297.06 440.36,301.95" fill="none" id="UC6-backto-Admin" style="stroke:#181818;stroke-width:1;"/><polygon fill="#181818" points="292.01,262.81,300.134,268.3778,296.9269,263.718,301.5867,260.5108,292.01,262.81" style="stroke:#181818;stroke-width:1;"/></g><!--SRC=[PP4zJyCm48Pt_ufJ5gZK3D0qwe2G80AMT4afkqaESoAn9PzBXH3_7USJ9ooH7xsFuhlNDRuvS0OigNS75Lai7HajX2oTiV1qGdR3-TbAqcY5Q1sfLOqGFPBJo0nPBVrtBxLKsA1sSFXYXqq4tmBWn5XAzlOBuNbGSs8NWMGuPbUXSc_CHwyCwNMOPXQbmrc- -NT1-mlIAhmY2QK2bK_Gmf7H3i8s57AZI8Tf6gO7r1KyD99gAB0XNKtQJloClUsnUVLLzN1NUKs82yZRifagX2vWkEpwNO_LhaJ74CUtNIyXROKOh2cUysR1oOBJ1U_QYOhksMSZzQEl-wbN4FlDspOjVgBr-qjhpPc5lnzkudXSrB_J7DCG9xjlmiywesH6wH_z0W00]--></g></svg>