<svg xmlns="http://www.w3.org/2000/svg" xmlns:xlink="http://www.w3.org/1999/xlink" contentStyleType="text/css" data-diagram-type="DESCRIPTION" height="372px" preserveAspectRatio="none" style="width:498px;height:372px;background:#FFFFFF;" version="1.1" viewBox="0 0 498 372" width="498px" zoomAndPan="magnify"><defs/><g><!--cluster Fitness Class Management System--><g class="cluster" data-entity="Fitness Class Management System" data-source-line="6" data-uid="ent0004" id="cluster_Fitness Class Management System"><rect fill="none" height="359" rx="2.5" ry="2.5" style="stroke:#181818;stroke-width:1;" width="290" x="100" y="7"/><text fill="#000000" font-family="sans-serif" font-size="14" font-weight="bold" lengthAdjust="spacing" textLength="274.3604" x="107.8198" y="21.9951">Fitness Class Management System</text></g><!--entity UC1--><g class="entity" data-entity="UC1" data-source-line="8" data-uid="ent0005" id="entity_UC1"><ellipse cx="244.9559" cy="123.1912" fill="#F1F1F1" rx="68.9559" ry="16.1912" style="stroke:#181818;stroke-width:0.5;"/><text fill="#000000" font-family="sans-serif" font-size="14" lengthAdjust="spacing" textLength="103.7354" x="193.0882" y="127.8396">View Class List</text></g><!--entity UC2--><g class="entity" data-entity="UC2" data-source-line="9" data-uid="ent0006" id="entity_UC2"><ellipse cx="244.8285" cy="57.0236" fill="#F1F1F1" rx="56.8285" ry="14.5236" style="stroke:#181818;stroke-width:0.5;"/><text fill="#000000" font-family="sans-serif" font-size="14" lengthAdjust="spacing" textLength="76.125" x="206.766" y="61.6721">Book Class</text></g><!--entity UC3--><g class="entity" data-entity="UC3" data-source-line="10" data-uid="ent0007" id="entity_UC3"><ellipse cx="245.0058" cy="189.0012" fill="#F1F1F1" rx="63.0058" ry="15.0012" style="stroke:#181818;stroke-width:0.5;"/><text fill="#000000" font-family="sans-serif" font-size="14" lengthAdjust="spacing" textLength="88.1084" x="200.9516" y="193.6496">Create Class</text></g><!--entity UC4--><g class="entity" data-entity="UC4" data-source-line="11" data-uid="ent0008" id="entity_UC4"><ellipse cx="244.936" cy="331.7872" fill="#F1F1F1" rx="76.936" ry="17.7872" style="stroke:#181818;stroke-width:0.5;"/><text fill="#000000" font-family="sans-serif" font-size="14" lengthAdjust="spacing" textLength="123.3955" x="183.2383" y="336.4356">View Booking List</text></g><!--entity UC8--><g class="entity" data-entity="UC8" data-source-line="12" data-uid="ent0009" id="entity_UC8"><ellipse cx="244.791" cy="259.1582" fill="#F1F1F1" rx="88.791" ry="20.1582" style="stroke:#181818;stroke-width:0.5;"/><text fill="#000000" font-family="sans-serif" font-size="14" lengthAdjust="spacing" textLength="150.999" x="169.2915" y="263.8066">Send Email Reminder</text></g><!--entity Guest--><g class="entity" data-entity="Guest" data-source-line="3" data-uid="ent0002" id="entity_Guest"><ellipse cx="31.0591" cy="93.5" fill="#F1F1F1" rx="8" ry="8" style="stroke:#181818;stroke-width:0.5;"/><path d="M31.0591,101.5 L31.0591,128.5 M18.0591,109.5 L44.0591,109.5 M31.0591,128.5 L18.0591,143.5 M31.0591,128.5 L44.0591,143.5" fill="none" style="stroke:#181818;stroke-width:0.5;"/><text fill="#000000" font-family="sans-serif" font-size="14" lengthAdjust="spacing" textLength="41.1182" x="10.5" y="157.9951">Guest</text></g><!--entity Trainer--><g class="entity" data-entity="Trainer" data-source-line="4" data-uid="ent0003" id="entity_Trainer"><ellipse cx="31.0093" cy="216.5" fill="#F1F1F1" rx="8" ry="8" style="stroke:#181818;stroke-width:0.5;"/><path d="M31.0093,224.5 L31.0093,251.5 M18.0093,232.5 L44.0093,232.5 M31.0093,251.5 L18.0093,266.5 M31.0093,251.5 L44.0093,266.5" fill="none" style="stroke:#181818;stroke-width:0.5;"/><text fill="#000000" font-family="sans-serif" font-size="14" lengthAdjust="spacing" textLength="50.0186" x="6" y="280.9951">Trainer</text></g><!--entity Member--><g class="entity" data-entity="Member" data-source-line="15" data-uid="ent0010" id="entity_Member"><ellipse cx="462.793" cy="38.5" fill="#F1F1F1" rx="8" ry="8" style="stroke:#181818;stroke-width:0.5;"/><path d="M462.793,46.5 L462.793,73.5 M449.793,54.5 L475.793,54.5 M462.793,73.5 L449.793,88.5 M462.793,73.5 L475.793,88.5" fill="none" style="stroke:#181818;stroke-width:0.5;"/><text fill="#000000" font-family="sans-serif" font-size="14" lengthAdjust="spacing" textLength="57.5859" x="434" y="102.9951">Member</text></g><!--entity Admin--><g class="entity" data-entity="Admin" data-source-line="16" data-uid="ent0011" id="entity_Admin"><ellipse cx="462.9321" cy="159.5" fill="#F1F1F1" rx="8" ry="8" style="stroke:#181818;stroke-width:0.5;"/><path d="M462.9321,167.5 L462.9321,194.5 M449.9321,175.5 L475.9321,175.5 M462.9321,194.5 L449.9321,209.5 M462.9321,194.5 L475.9321,209.5" fill="none" style="stroke:#181818;stroke-width:0.5;"/><text fill="#000000" font-family="sans-serif" font-size="14" lengthAdjust="spacing" textLength="44.8643" x="440.5" y="223.9951">Admin</text></g><!--link Guest to UC1--><g class="link" data-entity-1="Guest" data-entity-2="UC1" data-source-line="19" data-uid="lnk12" id="link_Guest_UC1"><path d="M51.56,123 C79.55,123 126.4,123 169.65,123" fill="none" id="Guest-to-UC1" style="stroke:#181818;stroke-width:1;"/><polygon fill="#181818" points="175.65,123,166.65,119,170.65,123,166.65,127,175.65,123" style="stroke:#181818;stroke-width:1;"/></g><!--link Trainer to UC1--><g class="link" data-entity-1="Trainer" data-entity-2="UC1" data-source-line="20" data-uid="lnk13" id="link_Trainer_UC1"><path d="M48.79,207.99 C58.79,189.6 73.22,168.8 92,156 C116.99,138.97 143.2721,131.3811 171.6121,127.2711" fill="none" id="Trainer-to-UC1" style="stroke:#181818;stroke-width:1;"/><polygon fill="#181818" points="177.55,126.41,168.0691,123.7431,172.6018,127.1276,169.2173,131.6603,177.55,126.41" style="stroke:#181818;stroke-width:1;"/></g><!--link Trainer to UC3--><g class="link" data-entity-1="Trainer" data-entity-2="UC3" data-source-line="21" data-uid="lnk14" id="link_Trainer_UC3"><path d="M56.14,234.73 C66.94,230 79.93,224.75 92,221 C124.84,210.8 156.7682,203.901 186.4682,198.461" fill="none" id="Trainer-to-UC3" style="stroke:#181818;stroke-width:1;"/><polygon fill="#181818" points="192.37,197.38,182.7966,195.067,187.4518,198.2808,184.2379,202.9361,192.37,197.38" style="stroke:#181818;stroke-width:1;"/></g><!--link Trainer to UC4--><g class="link" data-entity-1="Trainer" data-entity-2="UC4" data-source-line="22" data-uid="lnk15" id="link_Trainer_UC4"><path d="M56.03,271.05 C66.3,280.45 78.93,290.44 92,297 C118.14,310.13 143.3754,317.2903 170.6454,322.4703" fill="none" id="Trainer-to-UC4" style="stroke:#181818;stroke-width:1;"/><polygon fill="#181818" points="176.54,323.59,168.4446,317.9807,171.6278,322.6569,166.9516,325.8402,176.54,323.59" style="stroke:#181818;stroke-width:1;"/></g><!--link Trainer to UC8--><g class="link" data-entity-1="Trainer" data-entity-2="UC8" data-source-line="23" data-uid="lnk16" id="link_Trainer_UC8"><path d="M56.32,247.49 C81.33,249.03 115.7613,251.1319 152.6913,253.4019" fill="none" id="Trainer-to-UC8" style="stroke:#181818;stroke-width:1;"/><polygon fill="#181818" points="158.68,253.77,149.9424,249.2254,153.6894,253.4632,149.4515,257.2103,158.68,253.77" style="stroke:#181818;stroke-width:1;"/></g><!--reverse link UC1 to Member--><g class="link" data-entity-1="UC1" data-entity-2="Member" data-source-line="26" data-uid="lnk17" id="link_UC1_Member"><path d="M303.8921,111.4378 C333.3921,105.2478 365.02,98.08 398,89 C409.84,85.74 422.73,81.62 433.82,77.9" fill="none" id="UC1-backto-Member" style="stroke:#181818;stroke-width:1;"/><polygon fill="#181818" points="298.02,112.67,307.6496,114.7365,302.9134,111.6432,306.0067,106.907,298.02,112.67" style="stroke:#181818;stroke-width:1;"/></g><!--reverse link UC2 to Member--><g class="link" data-entity-1="UC2" data-entity-2="Member" data-source-line="27" data-uid="lnk18" id="link_UC2_Member"><path d="M307.0522,60.1054 C349.4322,62.2654 400.25,64.86 433.81,66.56" fill="none" id="UC2-backto-Member" style="stroke:#181818;stroke-width:1;"/><polygon fill="#181818" points="301.06,59.8,309.8447,64.2529,306.0535,60.0545,310.2519,56.2633,301.06,59.8" style="stroke:#181818;stroke-width:1;"/></g><!--reverse link UC1 to Admin--><g class="link" data-entity-1="UC1" data-entity-2="Admin" data-source-line="29" data-uid="lnk19" id="link_UC1_Admin"><path d="M308.8307,132.7873 C337.8107,138.1273 367.38,145 398,156 C412.71,161.28 428.31,169.28 440.43,176.07" fill="none" id="UC1-backto-Admin" style="stroke:#181818;stroke-width:1;"/><polygon fill="#181818" points="302.93,131.7,311.0561,137.2647,307.8472,132.6061,312.5058,129.3972,302.93,131.7" style="stroke:#181818;stroke-width:1;"/></g><!--reverse link UC3 to Admin--><g class="link" data-entity-1="UC3" data-entity-2="Admin" data-source-line="30" data-uid="lnk20" id="link_UC3_Admin"><path d="M314.19,189 C358.68,189 409.91,189 440.48,189" fill="none" id="UC3-backto-Admin" style="stroke:#181818;stroke-width:1;"/><polygon fill="#181818" points="308.19,189,317.19,193,313.19,189,317.19,185,308.19,189" style="stroke:#181818;stroke-width:1;"/></g><!--reverse link UC4 to Admin--><g class="link" data-entity-1="UC4" data-entity-2="Admin" data-source-line="31" data-uid="lnk21" id="link_UC4_Admin"><path d="M325.3686,326.0967 C352.0986,321.3767 375.37,313.54 398,297 C421.67,279.7 438.13,250.77 448.43,227.2" fill="none" id="UC4-backto-Admin" style="stroke:#181818;stroke-width:1;"/><polygon fill="#181818" points="319.46,327.14,329.0184,329.514,324.3838,326.2705,327.6273,321.6359,319.46,327.14" style="stroke:#181818;stroke-width:1;"/></g><!--SRC=[TP4_JyD03CLtVmeh2p1aW6ReW90WQbdQfGLsavXWaTn9FfSA8Ruxbp-5Qn7BwPxUJ_ViTos_69f7bURLi1RboiGx0AhCAzxlEDXqVr0InmhGC-IQbZ5RYZaE0SkMuhacHmrtx0ot7y6uo_0J074NkA8GyIVX_SIk95Y65F2nl4oHE-_VHcHohrAtL2RZ8t_s9w1_GboJHXGfj6LNuw8ZQN73dRYQTSBcy7NOVCtTSrns5BTrn03ESDNN5QHc78m0Gq6OvpV37bD5_-ZPYIvEzBnFs0mVaKJWkV8xQnoSLFt-0kB3U9tdXmbZGwdyiSUPO-gHAdxLDm00]--></g></svg>