<svg xmlns="http://www.w3.org/2000/svg" xmlns:xlink="http://www.w3.org/1999/xlink" contentStyleType="text/css" data-diagram-type="DESCRIPTION" height="800px" preserveAspectRatio="none" style="width:825px;height:800px;background:#FFFFFF;" version="1.1" viewBox="0 0 825 800" width="825px" zoomAndPan="magnify"><defs/><g><!--cluster Fitness Class Management System--><g class="cluster" data-entity="Fitness Class Management System" data-source-line="14" data-uid="ent0010" id="cluster_Fitness Class Management System"><rect fill="none" height="787" rx="2.5" ry="2.5" style="stroke:#181818;stroke-width:1;" width="290" x="324" y="7"/><text fill="#000000" font-family="sans-serif" font-size="14" font-weight="bold" lengthAdjust="spacing" textLength="274.3604" x="331.8198" y="21.9951">Fitness Class Management System</text></g><!--entity UC1--><g class="entity" data-entity="UC1" data-source-line="15" data-uid="ent0011" id="entity_UC1"><ellipse cx="468.4559" cy="695.1912" fill="#F1F1F1" rx="68.9559" ry="16.1912" style="stroke:#181818;stroke-width:0.5;"/><text fill="#000000" font-family="sans-serif" font-size="14" lengthAdjust="spacing" textLength="103.7354" x="416.5882" y="699.8396">View Class List</text></g><!--entity UC5--><g class="entity" data-entity="UC5" data-source-line="16" data-uid="ent0012" id="entity_UC5"><ellipse cx="468.439" cy="761.9878" fill="#F1F1F1" rx="65.439" ry="15.4878" style="stroke:#181818;stroke-width:0.5;"/><text fill="#000000" font-family="sans-serif" font-size="14" lengthAdjust="spacing" textLength="94.6299" x="421.1241" y="766.6362">Register User</text></g><!--entity UC6--><g class="entity" data-entity="UC6" data-source-line="17" data-uid="ent0013" id="entity_UC6"><ellipse cx="468.5911" cy="548.0236" fill="#F1F1F1" rx="55.5911" ry="14.5236" style="stroke:#181818;stroke-width:0.5;"/><text fill="#000000" font-family="sans-serif" font-size="14" lengthAdjust="spacing" textLength="74.375" x="431.4036" y="552.6721">Login User</text></g><!--entity UC9--><g class="entity" data-entity="UC9" data-source-line="18" data-uid="ent0014" id="entity_UC9"><ellipse cx="468.6915" cy="461.8383" fill="#F1F1F1" rx="84.6915" ry="19.3383" style="stroke:#181818;stroke-width:0.5;"/><text fill="#000000" font-family="sans-serif" font-size="14" lengthAdjust="spacing" textLength="141.6133" x="397.8849" y="466.4867">Validate Credentials</text></g><!--entity UC2--><g class="entity" data-entity="UC2" data-source-line="19" data-uid="ent0015" id="entity_UC2"><ellipse cx="468.3285" cy="629.0236" fill="#F1F1F1" rx="56.8285" ry="14.5236" style="stroke:#181818;stroke-width:0.5;"/><text fill="#000000" font-family="sans-serif" font-size="14" lengthAdjust="spacing" textLength="76.125" x="430.266" y="633.6721">Book Class</text></g><!--entity UC3--><g class="entity" data-entity="UC3" data-source-line="20" data-uid="ent0016" id="entity_UC3"><ellipse cx="468.5058" cy="392.0012" fill="#F1F1F1" rx="63.0058" ry="15.0012" style="stroke:#181818;stroke-width:0.5;"/><text fill="#000000" font-family="sans-serif" font-size="14" lengthAdjust="spacing" textLength="88.1084" x="424.4516" y="396.6496">Create Class</text></g><!--entity UC4--><g class="entity" data-entity="UC4" data-source-line="21" data-uid="ent0017" id="entity_UC4"><ellipse cx="468.436" cy="323.7872" fill="#F1F1F1" rx="76.936" ry="17.7872" style="stroke:#181818;stroke-width:0.5;"/><text fill="#000000" font-family="sans-serif" font-size="14" lengthAdjust="spacing" textLength="123.3955" x="406.7383" y="328.4356">View Booking List</text></g><!--entity UC8--><g class="entity" data-entity="UC8" data-source-line="22" data-uid="ent0018" id="entity_UC8"><ellipse cx="468.291" cy="154.1582" fill="#F1F1F1" rx="88.791" ry="20.1582" style="stroke:#181818;stroke-width:0.5;"/><text fill="#000000" font-family="sans-serif" font-size="14" lengthAdjust="spacing" textLength="150.999" x="392.7915" y="158.8066">Send Email Reminder</text></g><!--entity UC10--><g class="entity" data-entity="UC10" data-source-line="23" data-uid="ent0019" id="entity_UC10"><ellipse cx="468.5607" cy="61.8121" fill="#F1F1F1" rx="87.0607" ry="19.8121" style="stroke:#181818;stroke-width:0.5;"/><text fill="#000000" font-family="sans-serif" font-size="14" lengthAdjust="spacing" textLength="147.0547" x="395.0333" y="66.4606">Notify Enrolled Users</text></g><!--entity UC11--><g class="entity" data-entity="UC11" data-source-line="24" data-uid="ent0020" id="entity_UC11"><ellipse cx="468.3086" cy="248.1617" fill="#F1F1F1" rx="101.3086" ry="22.6617" style="stroke:#181818;stroke-width:0.5;"/><text fill="#000000" font-family="sans-serif" font-size="14" lengthAdjust="spacing" textLength="178.9375" x="378.8399" y="252.8102">Handle Class-Ended Error</text></g><!--entity Guest--><g class="entity" data-entity="Guest" data-source-line="3" data-uid="ent0002" id="entity_Guest"><ellipse cx="26.5591" cy="661.5" fill="#F1F1F1" rx="8" ry="8" style="stroke:#181818;stroke-width:0.5;"/><path d="M26.5591,669.5 L26.5591,696.5 M13.5591,677.5 L39.5591,677.5 M26.5591,696.5 L13.5591,711.5 M26.5591,696.5 L39.5591,711.5" fill="none" style="stroke:#181818;stroke-width:0.5;"/><text fill="#000000" font-family="sans-serif" font-size="14" lengthAdjust="spacing" textLength="41.1182" x="6" y="725.9951">Guest</text></g><!--entity Member--><g class="entity" data-entity="Member" data-source-line="4" data-uid="ent0003" id="entity_Member"><ellipse cx="136.793" cy="513.5" fill="#F1F1F1" rx="8" ry="8" style="stroke:#181818;stroke-width:0.5;"/><path d="M136.793,521.5 L136.793,548.5 M123.793,529.5 L149.793,529.5 M136.793,548.5 L123.793,563.5 M136.793,548.5 L149.793,563.5" fill="none" style="stroke:#181818;stroke-width:0.5;"/><text fill="#000000" font-family="sans-serif" font-size="14" lengthAdjust="spacing" textLength="57.5859" x="108" y="577.9951">Member</text></g><!--entity Trainer--><g class="entity" data-entity="Trainer" data-source-line="5" data-uid="ent0004" id="entity_Trainer"><ellipse cx="252.0093" cy="300.5" fill="#F1F1F1" rx="8" ry="8" style="stroke:#181818;stroke-width:0.5;"/><path d="M252.0093,308.5 L252.0093,335.5 M239.0093,316.5 L265.0093,316.5 M252.0093,335.5 L239.0093,350.5 M252.0093,335.5 L265.0093,350.5" fill="none" style="stroke:#181818;stroke-width:0.5;"/><text fill="#000000" font-family="sans-serif" font-size="14" lengthAdjust="spacing" textLength="50.0186" x="227" y="364.9951">Trainer</text></g><!--entity Admin--><g class="entity" data-entity="Admin" data-source-line="6" data-uid="ent0005" id="entity_Admin"><ellipse cx="251.9321" cy="417.5" fill="#F1F1F1" rx="8" ry="8" style="stroke:#181818;stroke-width:0.5;"/><path d="M251.9321,425.5 L251.9321,452.5 M238.9321,433.5 L264.9321,433.5 M251.9321,452.5 L238.9321,467.5 M251.9321,452.5 L264.9321,467.5" fill="none" style="stroke:#181818;stroke-width:0.5;"/><text fill="#000000" font-family="sans-serif" font-size="14" lengthAdjust="spacing" textLength="44.8643" x="229.5" y="481.9951">Admin</text></g><!--entity ESP--><g class="entity" data-entity="ESP" data-source-line="7" data-uid="ent0006" id="entity_ESP"><ellipse cx="739.8389" cy="124.5" fill="#F1F1F1" rx="8" ry="8" style="stroke:#181818;stroke-width:0.5;"/><path d="M739.8389,132.5 L739.8389,159.5 M726.8389,140.5 L752.8389,140.5 M739.8389,159.5 L726.8389,174.5 M739.8389,159.5 L752.8389,174.5" fill="none" style="stroke:#181818;stroke-width:0.5;"/><text fill="#000000" font-family="sans-serif" font-size="14" lengthAdjust="spacing" textLength="157.6777" x="661" y="188.9951">Email Service Provider</text></g><!--reverse link Guest to Member--><g class="link" data-entity-1="Guest" data-entity-2="Member" data-source-line="10" data-uid="lnk7" id="link_Guest_Member"><path d="M57.7935,649.6839 C74.8335,626.4439 89.04,607.06 108.13,581.02" fill="none" id="Guest-backto-Member" style="stroke:#181818;stroke-width:1;"/><polygon fill="none" points="47.15,664.2,62.6322,653.2317,52.9548,646.1361,47.15,664.2" style="stroke:#181818;stroke-width:1;"/></g><!--reverse link Member to Trainer--><g class="link" data-entity-1="Member" data-entity-2="Trainer" data-source-line="11" data-uid="lnk8" id="link_Member_Trainer"><path d="M166.6375,489.02 C187.1475,450.37 210.27,406.77 230.78,368.11" fill="none" id="Member-backto-Trainer" style="stroke:#181818;stroke-width:1;"/><polygon fill="none" points="158.2,504.92,171.9375,491.8325,161.3375,486.2075,158.2,504.92" style="stroke:#181818;stroke-width:1;"/></g><!--reverse link Member to Admin--><g class="link" data-entity-1="Member" data-entity-2="Admin" data-source-line="12" data-uid="lnk9" id="link_Member_Admin"><path d="M179.9377,507.3656 C199.4177,490.8156 211.23,480.79 229.16,465.56" fill="none" id="Member-backto-Admin" style="stroke:#181818;stroke-width:1;"/><polygon fill="none" points="166.22,519.02,183.8225,511.9382,176.0529,502.793,166.22,519.02" style="stroke:#181818;stroke-width:1;"/></g><!--link Guest to UC1--><g class="link" data-entity-1="Guest" data-entity-2="UC1" data-source-line="28" data-uid="lnk21" id="link_Guest_UC1"><path d="M47.26,691.18 C108.46,691.74 290.9102,693.3956 393.4002,694.3256" fill="none" id="Guest-to-UC1" style="stroke:#181818;stroke-width:1;"/><polygon fill="#181818" points="399.4,694.38,390.4367,690.2985,394.4002,694.3346,390.3641,698.2982,399.4,694.38" style="stroke:#181818;stroke-width:1;"/></g><!--link Guest to UC5--><g class="link" data-entity-1="Guest" data-entity-2="UC5" data-source-line="29" data-uid="lnk22" id="link_Guest_UC5"><path d="M47.23,694.69 C56.29,696.36 67.18,698.33 77,700 C196.61,720.37 331.2688,741.2537 406.8588,752.8037" fill="none" id="Guest-to-UC5" style="stroke:#181818;stroke-width:1;"/><polygon fill="#181818" points="412.79,753.71,404.4974,748.3965,407.8474,752.9548,403.2891,756.3047,412.79,753.71" style="stroke:#181818;stroke-width:1;"/></g><!--link Member to UC2--><g class="link" data-entity-1="Member" data-entity-2="UC2" data-source-line="32" data-uid="lnk23" id="link_Member_UC2"><path d="M166.09,550.33 C224.84,565.67 355.0046,599.6345 422.3846,617.2245" fill="none" id="Member-to-UC2" style="stroke:#181818;stroke-width:1;"/><polygon fill="#181818" points="428.19,618.74,420.4922,612.5964,423.3521,617.477,418.4715,620.337,428.19,618.74" style="stroke:#181818;stroke-width:1;"/></g><!--link Trainer to UC3--><g class="link" data-entity-1="Trainer" data-entity-2="UC3" data-source-line="35" data-uid="lnk24" id="link_Trainer_UC3"><path d="M277.03,342.56 C288.58,348.2 302.75,354.57 316,359 C348.55,369.89 380.3513,377.0222 410.0113,382.5422" fill="none" id="Trainer-to-UC3" style="stroke:#181818;stroke-width:1;"/><polygon fill="#181818" points="415.91,383.64,407.7938,378.0608,410.9944,382.7252,406.3301,385.9258,415.91,383.64" style="stroke:#181818;stroke-width:1;"/></g><!--link Trainer to UC4--><g class="link" data-entity-1="Trainer" data-entity-2="UC4" data-source-line="36" data-uid="lnk25" id="link_Trainer_UC4"><path d="M277.19,329.32 C304.91,328.55 345.7024,327.4084 385.9524,326.2784" fill="none" id="Trainer-to-UC4" style="stroke:#181818;stroke-width:1;"/><polygon fill="#181818" points="391.95,326.11,382.8413,322.3641,386.952,326.2503,383.0658,330.361,391.95,326.11" style="stroke:#181818;stroke-width:1;"/></g><!--link Trainer to UC8--><g class="link" data-entity-1="Trainer" data-entity-2="UC8" data-source-line="37" data-uid="lnk26" id="link_Trainer_UC8"><path d="M264.29,291.94 C274.03,265.13 290.6,230.2 316,208 C339.34,187.6 365.1475,176.3765 393.4375,168.3565" fill="none" id="Trainer-to-UC8" style="stroke:#181818;stroke-width:1;"/><polygon fill="#181818" points="399.21,166.72,389.4602,165.3264,394.3996,168.0837,391.6422,173.023,399.21,166.72" style="stroke:#181818;stroke-width:1;"/></g><!--link Admin to UC3--><g class="link" data-entity-1="Admin" data-entity-2="UC3" data-source-line="40" data-uid="lnk27" id="link_Admin_UC3"><path d="M274.66,438.7 C286.72,434.27 302.06,428.94 316,425 C349.81,415.45 382.6352,408.2302 412.4552,402.3002" fill="none" id="Admin-to-UC3" style="stroke:#181818;stroke-width:1;"/><polygon fill="#181818" points="418.34,401.13,408.7327,398.9622,413.436,402.1052,410.293,406.8085,418.34,401.13" style="stroke:#181818;stroke-width:1;"/></g><!--link Admin to UC4--><g class="link" data-entity-1="Admin" data-entity-2="UC4" data-source-line="41" data-uid="lnk28" id="link_Admin_UC4"><path d="M272.1,408.58 C282.73,390.96 297.56,371.3 316,359 C339.36,343.42 362.8361,335.7896 389.4961,330.9596" fill="none" id="Admin-to-UC4" style="stroke:#181818;stroke-width:1;"/><polygon fill="#181818" points="395.4,329.89,385.8311,327.5585,390.4801,330.7813,387.2572,335.4303,395.4,329.89" style="stroke:#181818;stroke-width:1;"/></g><!--link UC8 to ESP--><g class="link" data-entity-1="UC8" data-entity-2="ESP" data-source-line="44" data-uid="lnk29" id="link_UC8_ESP"><path d="M557.74,154 C591.06,154 622.69,154 655,154" fill="none" id="UC8-to-ESP" style="stroke:#181818;stroke-width:1;"/><polygon fill="#181818" points="661,154,652,150,656,154,652,158,661,154" style="stroke:#181818;stroke-width:1;"/></g><!--link UC6 to UC9--><g class="link" data-entity-1="UC6" data-entity-2="UC9" data-source-line="47" data-uid="lnk30" id="link_UC6_UC9"><path d="M468.5,533.41 C468.5,519.13 468.5,503.28 468.5,487.51" fill="none" id="UC6-to-UC9" style="stroke:#181818;stroke-width:1;stroke-dasharray:7,7;"/><polygon fill="#181818" points="468.5,481.51,464.5,490.51,468.5,486.51,472.5,490.51,468.5,481.51" style="stroke:#181818;stroke-width:1;"/><text fill="#000000" font-family="sans-serif" font-size="13" lengthAdjust="spacing" textLength="63.0068" x="425.5" y="512.0669">&#171;include&#187;</text></g><!--link UC2 to UC6--><g class="link" data-entity-1="UC2" data-entity-2="UC6" data-source-line="48" data-uid="lnk31" id="link_UC2_UC6"><path d="M468.5,614.14 C468.5,599.53 468.5,583.34 468.5,568.76" fill="none" id="UC2-to-UC6" style="stroke:#181818;stroke-width:1;stroke-dasharray:7,7;"/><polygon fill="#181818" points="468.5,562.76,464.5,571.76,468.5,567.76,472.5,571.76,468.5,562.76" style="stroke:#181818;stroke-width:1;"/><text fill="#000000" font-family="sans-serif" font-size="13" lengthAdjust="spacing" textLength="63.0068" x="425.5" y="593.0669">&#171;include&#187;</text></g><!--link UC8 to UC10--><g class="link" data-entity-1="UC8" data-entity-2="UC10" data-source-line="49" data-uid="lnk32" id="link_UC8_UC10"><path d="M468.5,133.58 C468.5,118.23 468.5,103.3 468.5,88.04" fill="none" id="UC8-to-UC10" style="stroke:#181818;stroke-width:1;stroke-dasharray:7,7;"/><polygon fill="#181818" points="468.5,82.04,464.5,91.04,468.5,87.04,472.5,91.04,468.5,82.04" style="stroke:#181818;stroke-width:1;"/><text fill="#000000" font-family="sans-serif" font-size="13" lengthAdjust="spacing" textLength="63.0068" x="425.5" y="112.5669">&#171;include&#187;</text></g><!--link UC11 to UC8--><g class="link" data-entity-1="UC11" data-entity-2="UC8" data-source-line="52" data-uid="lnk33" id="link_UC11_UC8"><path d="M468.5,225.25 C468.5,209.71 468.5,195.3 468.5,180.31" fill="none" id="UC11-to-UC8" style="stroke:#181818;stroke-width:1;stroke-dasharray:7,7;"/><polygon fill="#181818" points="468.5,174.31,464.5,183.31,468.5,179.31,472.5,183.31,468.5,174.31" style="stroke:#181818;stroke-width:1;"/><text fill="#000000" font-family="sans-serif" font-size="13" lengthAdjust="spacing" textLength="61.1851" x="426.5" y="204.3169">&#171;extend&#187;</text></g><!--SRC=[PLDDRzim3BtxLn2vh3jugzCqI8V0m1fa7q1R57NJksenZb1PAYIbMRRslu_wSA6abyJaUtnyD6c9QmTEWn7TnW4N1bidj2eArZfjuESMhKlFrzW_ead1lM52lKVVUIzKUXujUoOaD6XUH8jmQ_IBu6X6m2miczkY-0I_rGQDS4mH_eXkXwWW55iuUPOa31sIE9FYB_DkW1cZTv-Bu0RchsKvc8b_CJLOodFHME6dOggJ2ACVmYcq5XQIqUyrKwp37fM3PcyTzYFuLm1iBRRC4lj1u2vHhuHrOOZLeiefTzWHGWrNDasvMfpdX2lTqKGPEZteG5DovX0M1Zdv44pQnBl8UPTQFqKd2HtdA1K7ZGm_-p27bn2gooUPvAG65OUulJkazyRV7SzosersOhs7fJ9QIkHXig5fTPepVp75PN9LBacFv6cJWsfL5M_-7E9QYQDR4VPjqwRBiWvlEu_EVKLQyK59oaNMsBFIGHpIXcJadHt5awDuvdN24HsgnDIWaKSJNz5WgnLdPX_FkY2X0AVx5wgLMuvWK4QzZNYsH9h25ozn0TzWFa-akYPW787f1s0MWUhq2A4c-CVvVUOzu8H9kbH5f_9rJMlU6eIrz5-MNqQKcWMbM5pN_m40]--></g></svg>